HIERARCHY
ROOT Hips
{
 OFFSET 0.000000 0.000000 0.000000
 CHANNELS 6 Xposition Yposition Zposition Yrotation Xrotation Zrotation
 JOINT Chest
 {
  OFFSET 0.000000 9.585900 0.002600
  CHANNELS 3 Yrotation Xrotation Zrotation
  JOINT Chest2
  {
   OFFSET 0.000000 9.601200 -0.005300
   CHANNELS 3 Yrotation Xrotation Zrotation
   JOINT Chest3
   {
    OFFSET 0.000000 9.561800 0.000000
    CHANNELS 3 Yrotation Xrotation Zrotation
    JOINT Chest4
    {
     OFFSET 0.000000 9.552100 0.000000
     CHANNELS 3 Yrotation Xrotation Zrotation
     JOINT Neck
     {
      OFFSET 0.000000 14.453000 0.000000
      CHANNELS 3 Yrotation Xrotation Zrotation
      JOINT Head
      {
       OFFSET 0.000000 8.936500 -0.011300
       CHANNELS 3 Yrotation Xrotation Zrotation
       End Site
       {
        OFFSET 0.000000 17.073600 -0.006000
       }
      }
     }
     JOINT RightCollar
     {
      OFFSET -2.921100 9.558500 0.000000
      CHANNELS 3 Yrotation Xrotation Zrotation
      JOINT RightShoulder
      {
       OFFSET -13.519700 0.000000 0.000000
       CHANNELS 3 Yrotation Xrotation Zrotation
       JOINT RightElbow
       {
        OFFSET 0.000000 -29.696600 0.000000
        CHANNELS 3 Yrotation Xrotation Zrotation
        JOINT RightWrist
        {
         OFFSET 0.000000 -24.004700 0.000000
         CHANNELS 3 Yrotation Xrotation Zrotation
         End Site
         {
          OFFSET 0.000000 -17.728500 0.000000
         }
        }
       }
      }
     }
     JOINT LeftCollar
     {
      OFFSET 2.921100 9.558500 0.000000
      CHANNELS 3 Yrotation Xrotation Zrotation
      JOINT LeftShoulder
      {
       OFFSET 13.519700 0.000000 0.000000
       CHANNELS 3 Yrotation Xrotation Zrotation
       JOINT LeftElbow
       {
        OFFSET 0.000000 -29.696600 0.000000
        CHANNELS 3 Yrotation Xrotation Zrotation
        JOINT LeftWrist
        {
         OFFSET 0.000000 -24.004700 0.000000
         CHANNELS 3 Yrotation Xrotation Zrotation
         End Site
         {
          OFFSET 0.000000 -17.728500 0.000000
         }
        }
       }
      }
     }
    }
   }
  }
 }
 JOINT RightHip
 {
  OFFSET -7.771700 -0.012900 -0.001300
  CHANNELS 3 Yrotation Xrotation Zrotation
  JOINT RightKnee
  {
   OFFSET 0.000000 -40.869800 0.001200
   CHANNELS 3 Yrotation Xrotation Zrotation
   JOINT RightAnkle
   {
    OFFSET 0.000000 -39.717900 0.002100
    CHANNELS 3 Yrotation Xrotation Zrotation
    JOINT RightToe
    {
     OFFSET 0.000000 -4.965400 11.033500
     CHANNELS 3 Yrotation Xrotation Zrotation
     End Site
     {
      OFFSET 0.000000 -1.423100 5.872300
     }
    }
   }
  }
 }
 JOINT LeftHip
 {
  OFFSET 7.771700 -0.012900 -0.001300
  CHANNELS 3 Yrotation Xrotation Zrotation
  JOINT LeftKnee
  {
   OFFSET 0.000000 -40.869800 0.001200
   CHANNELS 3 Yrotation Xrotation Zrotation
   JOINT LeftAnkle
   {
    OFFSET 0.000000 -39.717900 0.002100
    CHANNELS 3 Yrotation Xrotation Zrotation
    JOINT LeftToe
    {
     OFFSET 0.000000 -4.965400 11.033500
     CHANNELS 3 Yrotation Xrotation Zrotation
     End Site
     {
      OFFSET 0.000000 -1.423100 5.872300
     }
    }
   }
  }
 }
}
MOTION
Frames: 9
Frame Time: 0.008333
11.784128 48.695164 51.085451 174.704072 -35.803747 -6.811857 6.768407 19.366594 4.960571 0.759230 2.502973 0.501349 1.288008 4.176060 0.862179 5.657382 16.610764 4.106041 -2.393663 16.343170 1.216351 -4.872356 -5.334886 3.087961 -2.565300 -2.257766 -4.242170 1.869420 -2.140240 2.583387 28.140123 -83.605999 -37.732752 -0.675565 -6.106760 2.577402 -8.535830 -0.928808 0.486312 2.038178 -2.007332 -1.390231 -111.439525 -71.292433 115.214443 12.903709 -5.739453 -0.363615 6.814219 -51.128028 7.413829 -68.534431 83.149632 -56.988850 -4.149229 -0.530491 -4.689971 0.003531 -0.352382 0.021099 -8.668648 -49.133666 13.528620 -153.233997 80.584307 -159.899426 1.402163 -15.860842 7.193906 0.002514 0.016830 0.023617
11.778574 48.697972 51.091855 174.683171 -35.755646 -6.786931 6.783463 19.347012 4.953039 0.770559 2.531451 0.507717 1.306080 4.179460 0.861924 5.684849 16.623585 4.093265 -2.417002 16.356229 1.206464 -4.909620 -5.330312 3.088177 -2.563114 -2.295907 -4.248938 1.856066 -2.162236 2.546892 29.405717 -83.552832 -39.037118 -0.611598 -6.076030 2.588459 -8.546475 -0.925278 0.491608 2.001514 -2.050711 -1.434937 -111.350958 -71.267744 115.162570 12.848950 -5.664813 -0.378003 6.831754 -51.027839 7.380901 -70.957719 83.346184 -59.383884 -4.343510 -0.921110 -4.679873 0.020309 -0.379499 0.025114 -8.655821 -49.175487 13.516886 -153.271516 80.604947 -159.941110 1.393609 -15.851821 7.188194 0.000856 0.016265 0.023495
11.769242 48.706423 51.094003 174.662523 -35.755186 -6.739177 6.831752 19.393453 4.956153 0.757177 2.517711 0.497273 1.312681 4.189121 0.856684 5.678575 16.611416 4.083907 -2.408895 16.400354 1.193436 -4.942799 -5.357452 3.101174 -2.557582 -2.308597 -4.255577 1.869995 -2.163706 2.508501 30.034398 -83.544168 -39.701256 -0.616476 -6.053781 2.589668 -8.551424 -0.924213 0.494214 1.993430 -2.051401 -1.478021 -111.274987 -71.265988 115.110082 12.809625 -5.657090 -0.408895 6.846928 -50.869427 7.354728 -73.464866 83.510910 -61.872540 -4.681712 -1.297824 -4.660957 0.020314 -0.416825 0.020644 -8.601012 -49.155759 13.458360 -153.294685 80.645774 -159.972561 1.377141 -15.843352 7.171622 0.010525 0.018728 0.036473
11.758082 48.715690 51.098205 174.620952 -35.758621 -6.669655 6.859873 19.409843 4.916175 0.772379 2.531769 0.502608 1.319929 4.210286 0.856166 5.675141 16.594943 4.076398 -2.399122 16.445477 1.181950 -4.974367 -5.312622 3.079324 -2.508678 -2.283496 -4.285116 1.834324 -2.197372 2.497384 30.047447 -83.569725 -39.754526 -0.565818 -6.053791 2.594047 -8.526227 -0.870025 0.499297 1.957621 -2.107133 -1.511142 -111.275840 -71.252448 115.111067 12.787157 -5.627000 -0.428214 6.865789 -50.705588 7.340927 -76.093486 83.628168 -64.486993 -5.138662 -1.647497 -4.626288 -0.005562 -0.468060 0.002021 -8.523197 -49.139286 13.387306 -153.235695 80.678975 -159.920843 1.365945 -15.825771 7.161895 0.017878 0.015750 0.039561
11.745774 48.724204 51.105722 174.603102 -35.751139 -6.608982 6.865265 19.421894 4.869381 0.805837 2.595580 0.512495 1.308235 4.181361 0.849387 5.757167 16.655720 4.091627 -2.461445 16.405980 1.177848 -5.006021 -5.267230 3.058376 -2.539582 -2.343287 -4.304253 1.807893 -2.231415 2.488256 30.434677 -83.590714 -40.183216 -0.557002 -6.013917 2.574182 -8.577517 -0.897355 0.529867 1.923403 -2.166307 -1.541301 -111.154167 -71.247923 115.001298 12.756929 -5.574017 -0.525392 6.860434 -50.544615 7.316271 -78.768001 83.710298 -67.161192 -5.462739 -1.916097 -4.591046 -0.020352 -0.569140 -0.008391 -8.467450 -49.135004 13.316207 -153.114291 80.705957 -159.811042 1.350584 -15.818159 7.154644 0.033928 0.026563 0.039254
11.741741 48.732409 51.117791 174.566070 -35.736663 -6.590291 6.926105 19.466868 4.888538 0.798912 2.568563 0.509134 1.318288 4.192955 0.851197 5.791170 16.670845 4.094937 -2.498580 16.377223 1.177968 -5.022367 -5.256556 3.054144 -2.544671 -2.370136 -4.311819 1.792027 -2.254410 2.476152 30.574494 -83.636247 -40.352329 -0.569928 -5.939702 2.532000 -8.598460 -0.892660 0.558348 1.896781 -2.215357 -1.566042 -110.948613 -71.184598 114.823685 12.734727 -5.638305 -0.581506 6.809392 -50.394416 7.339017 -81.390698 83.782827 -69.802496 -5.457303 -2.129309 -4.580536 0.010125 -0.673575 0.010140 -8.456063 -49.136161 13.327065 -152.960893 80.727641 -159.661093 1.353062 -15.806000 7.144693 0.041587 0.030682 0.040032
11.736688 48.741015 51.130039 174.530360 -35.731714 -6.569159 6.963344 19.478534 4.892704 0.807234 2.583077 0.511435 1.316189 4.182309 0.849790 5.793124 16.663460 4.093555 -2.471736 16.458642 1.164082 -5.061698 -5.302363 3.069712 -2.507970 -2.349255 -4.317921 1.751217 -2.283989 2.473108 30.683858 -83.671778 -40.466875 -0.554096 -5.835105 2.476921 -8.579116 -0.839461 0.577550 1.866151 -2.277995 -1.586180 -110.685253 -71.047956 114.588188 12.724269 -5.777506 -0.572894 6.761854 -50.228625 7.325503 -83.878417 83.852752 -72.317735 -5.283467 -2.232257 -4.598088 0.068765 -0.833612 0.049631 -8.435875 -49.130464 13.323764 -152.804827 80.746358 -159.504758 1.358808 -15.798573 7.131664 0.052922 0.037646 0.043813
11.733181 48.750177 51.142760 174.493037 -35.735046 -6.561119 7.001135 19.482900 4.908675 0.818768 2.610891 0.515304 1.314195 4.171248 0.848527 5.871865 16.753344 4.117585 -2.514123 16.434097 1.153127 -5.092587 -5.296372 3.061956 -2.537170 -2.431868 -4.317506 1.744190 -2.290013 2.446695 30.863232 -83.740800 -40.676299 -0.497603 -5.679300 2.398962 -8.642189 -0.922403 0.600169 1.857910 -2.283218 -1.586459 -110.462374 -70.834005 114.392740 12.720476 -5.997498 -0.507601 6.699220 -50.053719 7.315035 -86.215716 83.911041 -74.677156 -5.094984 -2.284307 -4.618106 0.081470 -0.986401 0.076760 -8.424479 -49.116203 13.333757 -152.649317 80.763965 -159.346003 1.385771 -15.787613 7.119783 0.049231 0.037543 0.042116
11.727656 48.759465 51.155567 174.471794 -35.741299 -6.556021 7.033981 19.510711 4.924584 0.819207 2.622692 0.516224 1.344801 4.232002 0.858056 5.884187 16.743004 4.117274 -2.538837 16.416827 1.143726 -5.113123 -5.283194 3.046018 -2.549860 -2.495951 -4.318476 1.747071 -2.283372 2.423644 32.243749 -83.775860 -42.059769 -0.484954 -5.425619 2.276673 -8.676468 -0.977034 0.616071 1.844162 -2.245101 -1.538517 -110.374107 -70.579058 114.346054 12.723792 -6.300805 -0.390113 6.644126 -49.871165 7.274453 -88.395918 83.953585 -76.864628 -4.955170 -2.279601 -4.643608 0.060537 -1.138480 0.096189 -8.412279 -49.102208 13.332976 -152.501903 80.779307 -159.191535 1.387013 -15.774939 7.118883 0.069209 0.038554 0.037964
